<svg width="155" height="40" viewBox="0 0 155 40" fill="none" xmlns="http://www.w3.org/2000/svg">
<path d="M2.53164 0.206195C11.6117 -0.33254 22.0941 -0.306041 28.8973 6.61558C35.9611 13.8026 35.8172 26.4607 28.6971 33.5403C21.0272 41.1662 9.92208 39.9258 0.0748213 39.8737C-0.0150698 34.9089 -0.0240396 29.9428 0.0483218 24.9776L0.0652416 13.398C2.15047 13.4283 4.28156 13.4059 6.37066 13.4063C6.61649 19.8308 6.48542 26.9652 6.48298 33.447C7.70802 33.4571 8.93307 33.46 10.1583 33.4555C14.99 33.4162 19.6254 32.7992 23.1546 29.1746C28.0053 24.1643 28.0248 15.5658 23.0134 10.6264C17.974 5.65918 10.6447 6.47391 4.16069 6.42255C2.79132 6.41174 1.41931 6.4464 0.0550462 6.45965C0.0401662 4.39541 0.0424092 2.33097 0.0621811 0.266939C0.869774 0.275704 1.72058 0.233305 2.53164 0.206195Z" fill="url(#paint0_linear_1042_273)"/>
<path d="M138.298 12.2443C142.872 12.0156 144.431 12.4526 147.892 15.5391V12.7818L154.081 12.7256C153.885 21.4995 154.23 30.2849 154.087 39.0912C152.191 39.0694 150.257 39.0936 148.357 39.0983C148.322 38.21 148.514 36.5378 148.225 35.8621L148.002 35.8239L147.424 36.4049C143.759 40.1999 137.678 40.2816 133.426 37.4375C127.04 33.1633 126.074 22.9436 130.289 16.8665C132.285 13.9885 134.945 12.831 138.298 12.2443ZM142.623 33.7986C144.996 33.2998 146.557 32.7097 148.017 30.6253C147.951 27.2985 147.951 23.9707 148.019 20.644C145.508 18.2124 143.761 17.2846 140.194 17.5932C130.579 20.5592 133.326 34.7864 142.623 33.7986Z" fill="url(#paint1_linear_1042_273)"/>
<path d="M47.6939 12.2421C52.0014 11.961 53.5471 12.8573 56.7752 15.5883L56.7929 12.812L62.891 12.8082C62.6764 21.2019 62.8908 30.5789 62.8674 39.0519L57.3455 39.1039L57.169 35.7351C56.756 36.1346 56.2982 36.5417 55.8724 36.9324C54.3502 38.1346 53.2256 38.7682 51.3065 39.1359C39.0709 41.4814 33.3886 25.7982 39.6482 16.9668C41.6935 14.0811 44.2989 12.7949 47.6939 12.2421ZM50.9451 33.7879C53.7005 33.3708 55.1457 32.8166 56.8851 30.4951L56.9205 20.7031C54.4659 18.5439 53.1596 17.3796 49.7729 17.5836C42.5225 19.1391 41.3887 28.5982 47.153 32.678C48.2702 33.4689 49.6051 33.6287 50.9451 33.7879Z" fill="url(#paint2_linear_1042_273)"/>
<path d="M74.6878 12.5665C76.6228 12.2591 82.7765 12.7913 84.949 12.9764L84.9808 18.3175C82.6528 17.9382 79.7064 18.1004 77.3433 17.9628C75.7098 17.8676 72.6421 18.3222 73.0426 20.5768C73.5459 23.4085 78.3943 23.308 80.5705 23.9232C83.5348 24.6327 86.9238 26.4811 87.2169 29.9542C87.8025 36.8948 82.6669 38.6031 77.153 39.0616C74.3276 39.236 69.652 38.8082 66.8823 38.498C66.8746 36.7097 66.883 34.9213 66.9076 33.133C70.2262 33.1287 73.499 33.6485 76.806 33.6302C77.8009 33.6247 79.3134 33.3874 79.9655 32.5945C80.2818 32.2099 80.7296 31.2832 80.6069 30.8126C79.9017 28.1079 74.7559 28.0759 72.5491 27.3818C71.1125 26.999 69.8975 26.507 68.7008 25.5993C65.6718 23.3015 65.6361 18.3774 67.909 15.5476C69.5444 13.5115 72.1682 12.8439 74.6878 12.5665Z" fill="url(#paint3_linear_1042_273)"/>
<path d="M90.1154 5.13788C92.2958 5.16743 94.5035 5.1497 96.6864 5.15031L96.6833 12.7725C99.5949 12.7762 102.506 12.7464 105.417 12.683L105.414 18.178L96.7508 18.1988C96.7031 21.1503 96.6876 24.1192 96.6713 27.0672C96.6623 28.7185 96.793 30.6244 98.0729 31.8205C99.3996 33.0604 100.783 33.0255 102.455 33.0129L105.448 33.0231C105.437 35.029 105.421 36.9514 105.514 38.959L104.89 38.9669C100.953 39.0111 95.9646 39.1993 92.9815 36.1789C89.1855 32.3356 90.0738 25.525 90.0862 20.5376L90.1154 5.13788Z" fill="url(#paint4_linear_1042_273)"/>
<path d="M118.952 12.5613C120.349 12.3227 124.125 12.4806 125.694 12.5173C125.676 14.5065 125.67 16.4958 125.676 18.485C116.001 18.339 116.596 18.6283 116.599 28.1623L116.613 38.8212L116.552 38.9549C116.156 39.1903 110.929 39.1041 109.966 39.1041C109.924 36.3069 109.909 33.4807 109.937 30.6863C110.019 22.6917 108.406 13.8268 118.952 12.5613Z" fill="url(#paint5_linear_1042_273)"/>
<defs>
<linearGradient id="paint0_linear_1042_273" x1="61" y1="17" x2="62.5" y2="92" gradientUnits="userSpaceOnUse">
<stop stop-color="#2591FE"/>
<stop offset="1" stop-color="#0204BD"/>
</linearGradient>
<linearGradient id="paint1_linear_1042_273" x1="61" y1="17" x2="62.5" y2="92" gradientUnits="userSpaceOnUse">
<stop stop-color="#2591FE"/>
<stop offset="1" stop-color="#0204BD"/>
</linearGradient>
<linearGradient id="paint2_linear_1042_273" x1="61" y1="17" x2="62.5" y2="92" gradientUnits="userSpaceOnUse">
<stop stop-color="#2591FE"/>
<stop offset="1" stop-color="#0204BD"/>
</linearGradient>
<linearGradient id="paint3_linear_1042_273" x1="61" y1="17" x2="62.5" y2="92" gradientUnits="userSpaceOnUse">
<stop stop-color="#2591FE"/>
<stop offset="1" stop-color="#0204BD"/>
</linearGradient>
<linearGradient id="paint4_linear_1042_273" x1="61" y1="17" x2="62.5" y2="92" gradientUnits="userSpaceOnUse">
<stop stop-color="#2591FE"/>
<stop offset="1" stop-color="#0204BD"/>
</linearGradient>
<linearGradient id="paint5_linear_1042_273" x1="61" y1="17" x2="62.5" y2="92" gradientUnits="userSpaceOnUse">
<stop stop-color="#2591FE"/>
<stop offset="1" stop-color="#0204BD"/>
</linearGradient>
</defs>
</svg>
